<svg width="32" height="32" viewBox="0 0 32 32" fill="none" xmlns="http://www.w3.org/2000/svg">
<g clip-path="url(#clip0_221_5503)">
<circle cx="16" cy="16" r="16" fill="#3981EE"/>
<path fill-rule="evenodd" clip-rule="evenodd" d="M25.5413 10.8126C25.6796 10.3446 25.5413 10 24.8788 10H22.6913C22.1347 10 21.878 10.2974 21.7388 10.6257C21.7388 10.6257 20.6264 13.3651 19.0506 15.1446C18.5406 15.6606 18.3089 15.8243 18.0306 15.8243C17.8914 15.8243 17.6823 15.6606 17.6823 15.1917V10.8126C17.6823 10.2503 17.5289 10 17.0656 10H13.6257C13.2782 10 13.069 10.2606 13.069 10.5083C13.069 11.0406 13.8573 11.164 13.9382 12.6623V15.9177C13.9382 16.6317 13.8107 16.7611 13.5323 16.7611C12.7907 16.7611 10.9866 14.0089 9.91575 10.8597C9.70826 10.2469 9.49826 10 8.93911 10H6.74998C6.125 10 6 10.2974 6 10.6257C6 11.2103 6.74165 14.1143 9.45409 17.9551C11.2624 20.578 13.8082 22 16.1273 22C17.5181 22 17.6898 21.6846 17.6898 21.1403V19.1577C17.6898 18.526 17.8214 18.4 18.2622 18.4C18.5872 18.4 19.1431 18.5646 20.4414 19.8289C21.9247 21.328 22.1688 22 23.0038 22H25.1913C25.8163 22 26.1296 21.6846 25.9496 21.0606C25.7513 20.44 25.0429 19.5391 24.1038 18.4703C23.5938 17.8617 22.8288 17.206 22.5963 16.8777C22.2722 16.4569 22.3647 16.2691 22.5963 15.8946C22.5963 15.8946 25.2629 12.1009 25.5404 10.8126H25.5413Z" fill="white"/>
</g>
<defs>
<clipPath id="clip0_221_5503">
<rect width="32" height="32" fill="white"/>
</clipPath>
</defs>
</svg>
