<svg id="1" width="20" height="20" viewBox="0 0 20 20" fill="none" xmlns="http://www.w3.org/2000/svg">
<path d="M14.1665 16.6667C14.1665 16.2064 14.5396 15.8333 14.9998 15.8333C15.4601 15.8333 15.8332 16.2064 15.8332 16.6667C15.8332 17.1269 15.4601 17.5 14.9998 17.5C14.5396 17.5 14.1665 17.1269 14.1665 16.6667Z" stroke="#313131" stroke-linecap="round" stroke-linejoin="round"/>
<path d="M5.8335 16.6667C5.8335 16.2064 6.20659 15.8333 6.66683 15.8333C7.12707 15.8333 7.50016 16.2064 7.50016 16.6667C7.50016 17.1269 7.12707 17.5 6.66683 17.5C6.20659 17.5 5.8335 17.1269 5.8335 16.6667Z" stroke="#313131" stroke-linecap="round" stroke-linejoin="round"/>
<path d="M2.5 2.5H3.13976C3.54165 2.5 3.88629 2.78683 3.95925 3.18204L5.83333 13.3333" stroke="#313131" stroke-linecap="round" stroke-linejoin="round"/>
<path d="M4.5835 5H16.4526C16.9885 5 17.3851 5.49854 17.2646 6.02072L15.7262 12.6874C15.6389 13.0655 15.3022 13.3333 14.9142 13.3333H5.8335" stroke="#313131" stroke-linecap="round" stroke-linejoin="round"/>
</svg>
